<?xml version="1.0" standalone="no"?>
<!DOCTYPE svg PUBLIC "-//W3C//DTD SVG 20010904//EN"
 "http://www.w3.org/TR/2001/REC-SVG-20010904/DTD/svg10.dtd">
<svg version="1.0" xmlns="http://www.w3.org/2000/svg"
 width="500.000000pt" height="500.000000pt" viewBox="0 0 500.000000 500.000000"
 preserveAspectRatio="xMidYMid meet">
<metadata>
Created by potrace 1.12, written by Peter Selinger 2001-2015
</metadata>
<g transform="translate(0.000000,500.000000) scale(0.100000,-0.100000)"
fill="#000000" stroke="none">
<path d="M500 4869 c-75 -15 -180 -73 -243 -135 -137 -136 -183 -351 -112
-526 l25 -61 0 -1123 0 -1122 -32 -68 c-82 -175 -29 -402 121 -522 109 -87
272 -120 401 -80 155 48 286 193 308 340 l7 53 548 3 547 2 0 -254 0 -254 88
-9 c113 -10 492 -10 605 0 l87 9 0 254 0 254 353 0 c333 0 355 -1 407 -21 61
-23 146 -21 187 6 19 13 96 15 488 15 l465 0 0 409 0 408 47 18 c28 11 69 40
99 70 160 159 113 431 -92 531 l-54 26 0 699 0 699 -567 0 c-426 1 -580 4
-616 14 -34 9 -63 10 -100 3 -29 -5 -160 -11 -293 -14 l-241 -4 -5 64 c-10
125 -87 234 -205 293 -51 25 -69 29 -148 28 -82 0 -96 -3 -153 -32 -118 -61
-187 -161 -199 -288 l-6 -64 -567 0 -567 0 -12 43 c-33 110 -131 228 -237 284
-108 58 -218 75 -334 52z m271 -116 c123 -61 208 -176 230 -313 9 -58 4 -114
-17 -187 -7 -25 -15 -19 246 -173 96 -57 211 -124 255 -150 340 -201 346 -204
369 -190 57 36 85 45 144 45 l63 1 118 194 c65 107 138 228 164 269 l46 74
-24 31 c-80 105 -77 246 8 343 108 122 291 125 399 5 50 -56 70 -105 71 -179
2 -175 -186 -316 -345 -258 -8 3 -25 -15 -44 -48 -35 -59 -140 -231 -236 -388
l-65 -105 28 -50 c49 -84 36 -190 -32 -260 l-30 -31 92 -254 c51 -140 122
-334 158 -433 l66 -179 80 -1 c67 -1 89 -6 138 -30 114 -58 171 -150 171 -281
1 -68 -3 -89 -27 -137 -116 -236 -446 -235 -568 2 -19 36 -23 61 -24 127 l0
82 -55 25 c-53 24 -195 87 -455 201 -66 29 -146 64 -178 79 l-59 26 -26 -32
c-46 -55 -151 -86 -218 -64 -17 5 -37 -18 -144 -176 -68 -101 -160 -237 -206
-303 l-82 -120 39 -54 c128 -178 68 -426 -126 -522 -182 -89 -396 -12 -481
173 -40 88 -41 197 -2 280 37 79 98 142 177 181 58 29 74 32 146 31 47 -1 95
-8 116 -17 l37 -15 25 39 c29 44 67 99 256 375 l130 192 -24 48 c-44 87 -29
189 38 261 l20 23 -27 72 c-16 40 -34 87 -41 103 -7 17 -34 84 -60 150 -26 66
-51 129 -56 140 -5 11 -63 153 -128 315 l-119 295 -94 1 c-111 2 -182 25 -257
84 -157 124 -199 350 -97 524 39 67 128 140 205 170 57 22 79 26 157 23 79 -2
100 -7 155 -34z m2824 -318 c180 -73 192 -338 19 -425 -27 -14 -50 -25 -51
-25 -1 0 9 -106 22 -235 14 -129 25 -241 25 -247 0 -7 15 -19 33 -27 58 -24
97 -83 97 -146 0 -25 9 -33 78 -71 42 -24 88 -49 102 -55 14 -6 84 -43 155
-81 72 -39 175 -94 230 -123 55 -29 106 -57 112 -63 9 -6 27 3 59 31 60 53
128 76 208 70 130 -11 228 -104 245 -235 19 -138 -59 -258 -195 -299 -61 -18
-97 -17 -159 4 -67 23 -118 66 -150 124 -15 26 -32 48 -39 48 -7 0 -77 -11
-157 -24 -79 -13 -160 -26 -179 -29 -35 -4 -256 -43 -297 -52 -14 -3 -26 -17
-33 -40 -6 -19 -27 -48 -46 -63 l-35 -29 33 -212 32 -211 40 -11 c111 -30 166
-168 106 -267 -88 -144 -305 -106 -335 59 -13 71 40 176 97 195 17 5 19 12 14
38 -4 17 -18 105 -32 196 -33 219 -29 207 -63 215 -53 11 -101 79 -101 143 l0
39 -272 156 -273 156 -30 -28 c-41 -39 -64 -50 -126 -57 -46 -5 -62 -2 -109
23 -129 66 -161 223 -67 330 93 105 243 95 335 -21 19 -25 20 -25 68 -10 27 8
81 24 119 34 39 10 135 38 215 62 l145 44 7 42 c8 49 40 98 68 107 26 8 26 38
0 265 -11 96 -20 191 -20 211 0 35 -2 37 -41 43 -42 7 -102 40 -131 72 -70 79
-75 217 -11 302 66 87 185 119 288 77z m-1410 -116 c12 -19 -203 -364 -232
-372 -10 -3 -44 -11 -75 -18 l-57 -12 -133 78 c-326 191 -518 307 -518 314 0
4 3 11 7 14 11 12 1001 8 1008 -4z m911 -1 c5 -7 8 -53 9 -103 1 -67 7 -104
24 -148 26 -65 109 -162 165 -192 20 -11 38 -26 42 -35 3 -8 12 -73 19 -145
l13 -130 -26 -43 c-52 -85 -57 -88 -212 -131 -80 -23 -151 -41 -157 -41 -7 0
-33 13 -60 30 -173 106 -406 57 -513 -110 -18 -28 -36 -50 -40 -50 -8 0 -50
96 -50 115 0 7 12 38 26 69 33 73 42 187 20 266 l-15 55 113 185 113 185 68 7
c120 12 196 62 320 211 18 21 129 25 141 5z m1489 -557 l0 -563 -60 -23 c-33
-13 -74 -28 -91 -35 -30 -13 -39 -9 -285 123 l-255 136 -18 51 c-11 30 -39 74
-69 106 l-50 55 -14 137 -13 136 50 51 c80 82 128 213 114 316 -11 85 -38 80
348 77 l343 -3 0 -564z m-4161 94 c41 -14 92 -25 113 -25 21 0 44 -4 50 -8 7
-5 92 -204 188 -444 l175 -435 -27 -59 c-23 -50 -28 -73 -28 -144 0 -47 3
-101 8 -120 7 -34 0 -46 -135 -245 l-143 -210 -110 -6 c-61 -3 -123 -11 -138
-18 -16 -6 -33 -9 -38 -5 -10 6 -13 1727 -2 1737 8 9 2 10 87 -18z m2667
-1217 l178 -102 22 -60 c16 -45 36 -74 77 -114 l55 -54 17 -112 17 -111 -24
-29 c-40 -48 -62 -101 -75 -178 -7 -40 -17 -76 -23 -80 -16 -12 -533 -10 -540
2 -4 6 18 35 48 65 69 67 122 173 138 271 38 237 -129 480 -363 528 -58 12
-92 35 -75 52 4 4 31 2 60 -6 72 -19 171 -16 237 8 30 11 59 20 64 21 6 0 90
-45 187 -101z m1254 -169 c50 -50 115 -92 182 -115 46 -16 52 -21 57 -53 12
-71 7 -486 -6 -499 -18 -18 -522 -17 -535 1 -6 6 -13 39 -16 73 -8 94 -56 176
-143 242 l-40 31 -17 111 c-18 114 -15 132 19 161 12 10 335 73 449 88 6 0 29
-17 50 -40z m-2545 -184 c118 -53 220 -101 227 -106 6 -6 17 -36 23 -66 35
-165 150 -298 308 -356 63 -22 189 -28 280 -13 l52 9 0 -235 c0 -169 -3 -237
-12 -246 -9 -9 -73 -12 -225 -12 -200 0 -213 1 -223 19 -6 12 -10 115 -10 265
l0 246 -592 2 -593 3 -13 27 c-7 15 -19 43 -27 62 l-15 36 144 212 143 213 54
8 c30 4 81 20 114 36 l60 28 45 -18 c25 -9 142 -61 260 -114z"/>
<path d="M2509 4649 c-48 -28 -69 -66 -69 -127 0 -40 6 -57 27 -83 69 -81 179
-75 233 13 76 124 -66 269 -191 197z"/>
<path d="M515 4595 c-76 -27 -135 -114 -135 -201 0 -54 49 -136 103 -168 82
-50 188 -36 252 35 45 50 56 78 56 146 2 91 -57 167 -146 192 -52 14 -81 13
-130 -4z"/>
<path d="M884 4099 c-16 -17 -41 -37 -56 -45 -29 -15 -29 -17 3 -89 9 -22 81
-200 159 -395 79 -195 166 -413 195 -485 l52 -130 53 -8 c111 -16 181 -89 202
-211 2 -15 89 -58 381 -187 l378 -167 37 40 c20 22 38 44 40 47 1 4 -54 162
-124 352 -69 189 -140 383 -157 431 l-31 87 -46 7 c-126 18 -211 121 -197 240
5 45 9 41 -93 99 -166 96 -726 428 -734 436 -17 15 -31 10 -62 -22z m306 -313
c58 -34 173 -102 256 -150 148 -86 174 -108 174 -154 0 -34 60 -143 103 -185
24 -25 73 -59 109 -76 l66 -31 80 -217 c107 -291 117 -321 109 -330 -8 -8
-139 44 -317 126 l-124 57 -30 60 c-40 78 -116 152 -197 191 l-66 32 -56 133
c-140 333 -237 579 -237 598 0 20 28 9 130 -54z"/>
<path d="M1944 3651 c-80 -49 -56 -162 38 -177 27 -5 40 -1 65 20 17 14 34 37
37 51 9 36 -17 91 -53 109 -39 20 -49 20 -87 -3z"/>
<path d="M1224 2821 c-73 -31 -69 -150 5 -181 93 -38 174 79 109 155 -25 28
-79 40 -114 26z"/>
<path d="M2442 2353 c-94 -46 -127 -168 -68 -256 71 -105 224 -105 296 0 36
52 35 144 0 196 -47 69 -153 97 -228 60z"/>
<path d="M460 1849 c-32 -13 -88 -66 -107 -103 -8 -16 -15 -54 -15 -87 0 -73
30 -131 90 -174 38 -26 52 -30 111 -30 57 0 74 4 109 28 66 43 95 96 96 171 2
121 -83 207 -203 205 -31 0 -67 -5 -81 -10z"/>
<path d="M3415 4305 c-30 -30 -35 -42 -35 -81 0 -39 5 -51 34 -80 29 -29 41
-34 83 -34 75 1 113 41 113 123 0 39 -5 49 -35 76 -29 25 -45 31 -80 31 -37 0
-50 -6 -80 -35z"/>
<path d="M3187 3165 c-137 -40 -251 -76 -254 -79 -3 -3 -7 -21 -9 -41 -4 -42
-32 -22 295 -209 l254 -145 24 19 c56 44 141 33 193 -26 l31 -36 332 56 c182
31 332 58 333 59 9 11 9 98 0 106 -6 4 -74 41 -151 81 -77 41 -157 84 -177 97
-21 13 -41 23 -44 23 -4 0 -74 37 -157 81 l-150 81 -42 -21 c-57 -29 -113 -27
-159 4 -20 14 -45 25 -54 24 -9 -1 -129 -34 -265 -74z m312 -121 c42 -13 73
-15 137 -10 82 7 83 7 166 -35 137 -68 221 -120 211 -130 -5 -5 -57 -18 -115
-29 l-105 -20 -69 36 c-68 36 -70 36 -168 32 l-99 -5 -76 44 c-123 72 -124 74
-112 86 14 14 152 57 166 52 6 -2 34 -11 64 -21z"/>
<path d="M2645 3138 c-15 -14 -28 -38 -32 -60 -5 -33 -2 -41 30 -73 25 -25 44
-35 65 -35 38 0 88 41 95 77 7 35 -15 88 -41 102 -35 18 -89 13 -117 -11z"/>
<path d="M4635 2900 c-47 -10 -74 -32 -96 -78 -35 -72 -12 -144 60 -186 96
-56 221 28 208 139 -9 87 -87 143 -172 125z"/>
<path d="M3521 2634 c-28 -35 -26 -69 4 -99 30 -30 64 -32 99 -4 35 27 37 90
4 113 -35 25 -83 20 -107 -10z"/>
<path d="M3635 1895 c-44 -43 -26 -124 32 -146 62 -23 132 37 118 102 -15 65
-103 92 -150 44z"/>
</g>
</svg>
